<?xml version="1.0" encoding="utf-8"?><!-- Uploaded to: SVG Repo, www.svgrepo.com, Generator: SVG Repo Mixer Tools -->
<svg fill="#000000" width="800px" height="800px" viewBox="0 0 512 512" id="_61_Screen" data-name="61 Screen" xmlns="http://www.w3.org/2000/svg">
  <path id="Path_79" data-name="Path 79" d="M480,0H32A31.991,31.991,0,0,0,0,32V384a31.991,31.991,0,0,0,32,32H224v32H128a31.991,31.991,0,0,0-32,32v32H416V480a31.991,31.991,0,0,0-32-32H288V416H480a31.991,31.991,0,0,0,32-32V32A31.991,31.991,0,0,0,480,0ZM448,352H64V64H448Z" fill-rule="evenodd"/>
</svg>