<svg width="777" height="778" viewBox="0 0 777 778" fill="none" xmlns="http://www.w3.org/2000/svg">
<g filter="url(#filter0_d_0_3)">
<path d="M173.284 468.252L130.116 619.357C129.621 620.973 129.36 622.824 129.36 624.753C129.36 635.518 138.093 644.25 148.859 644.25C148.885 644.25 148.885 644.25 148.911 644.25C148.937 644.25 148.963 644.25 148.989 644.25C150.944 644.25 152.795 643.963 154.568 643.39L154.437 643.416L300.99 600.251C304.223 599.286 306.986 597.618 309.202 595.402L767.187 142.01C770.758 138.491 773 133.591 773 128.169V128.143C773 122.747 770.81 117.847 767.291 114.302L659.344 6.33618C655.799 2.7912 650.898 0.601652 645.502 0.601652C640.106 0.601652 635.206 2.7912 631.66 6.33618L178.237 459.729C175.943 462.023 174.249 464.89 173.31 468.096L173.284 468.252ZM645.502 47.8594L725.739 128.091L645.502 207.514L565.24 128.091L645.502 47.8594ZM537.608 155.747L617.714 235.013L285.193 564.175L177.455 595.898L209.492 483.84L537.608 155.747ZM744 311.5C733.208 311.5 717.5 328.209 717.5 339L710.813 708.245H76.2623V72.1017H440.636C451.428 72.1017 463 57.1561 463 29.5C463 18.7087 451.428 0.653784 440.636 0.653784H23.5508C12.7588 0.653784 4 9.41197 4 20.2033V750.052C4 760.843 12.7588 769.602 23.5508 769.602H753.449C764.241 769.602 773 760.843 773 750.052V332.996C773 322.204 754.792 311.5 744 311.5Z" fill="#2fd1d7"/>
<path d="M173.765 468.39L173.773 468.362L173.777 468.334L173.799 468.208C174.716 465.092 176.364 462.309 178.591 460.082L632.014 6.68974C635.469 3.23476 640.244 1.10165 645.502 1.10165C650.761 1.10165 655.536 3.23477 658.991 6.6897L766.936 114.654C770.367 118.109 772.5 122.885 772.5 128.143V128.169C772.5 133.45 770.317 138.224 766.836 141.654L766.835 141.655L308.85 595.047L308.848 595.049C306.692 597.205 304.002 598.83 300.847 599.772L154.296 642.936L154.3 642.951C152.613 643.483 150.852 643.75 148.989 643.75H148.989H148.988H148.988H148.987H148.987H148.986H148.986H148.985H148.985H148.984H148.984H148.984H148.983H148.983H148.982H148.982H148.981H148.981H148.98H148.98H148.979H148.979H148.979H148.978H148.978H148.977H148.977H148.976H148.976H148.975H148.975H148.974H148.974H148.973H148.973H148.973H148.972H148.972H148.971H148.971H148.97H148.97H148.969H148.969H148.968H148.968H148.968H148.967H148.967H148.966H148.966H148.965H148.965H148.964H148.964H148.963H148.963H148.963H148.962H148.962H148.961H148.961H148.96H148.96H148.959H148.959H148.958H148.958H148.957H148.957H148.957H148.956H148.956H148.955H148.955H148.954H148.954H148.953H148.953H148.952H148.952H148.952H148.951H148.951H148.95H148.95H148.949H148.949H148.948H148.948H148.947H148.947H148.946H148.946H148.946H148.945H148.945H148.944H148.944H148.943H148.943H148.942H148.942H148.941H148.941H148.941H148.94H148.94H148.939H148.939H148.938H148.938H148.937H148.937H148.936H148.936H148.935H148.935H148.935H148.934H148.934H148.933H148.933H148.932H148.932H148.931H148.931H148.93H148.93H148.93H148.929H148.929H148.928H148.928H148.927H148.927H148.926H148.926H148.925H148.925H148.924H148.924H148.924H148.923H148.923H148.922H148.922H148.921H148.921H148.92H148.92H148.919H148.919H148.919H148.918H148.918H148.917H148.917H148.916H148.916H148.915H148.915H148.914H148.914H148.913H148.913H148.913H148.912H148.912H148.911H148.91H148.91H148.909H148.909H148.908H148.908H148.907H148.906H148.906H148.905H148.905H148.904H148.904H148.903H148.903H148.902H148.902H148.901H148.901H148.9H148.9H148.899H148.899H148.898H148.898H148.897H148.897H148.896H148.896H148.895H148.895H148.894H148.894H148.893H148.893H148.892H148.892H148.891H148.891H148.89H148.89H148.889H148.889H148.888H148.888H148.887H148.887H148.887H148.886H148.886H148.885H148.885H148.884H148.884H148.883H148.883H148.882H148.882H148.881H148.881H148.88H148.88H148.88H148.879H148.879H148.878H148.877H148.877H148.876H148.876H148.875H148.875H148.875H148.874H148.874H148.873H148.873H148.872H148.872H148.871H148.87H148.87H148.869H148.869H148.868H148.868H148.868H148.867H148.867H148.866H148.866H148.865H148.865H148.864H148.863H148.863H148.862H148.862H148.861H148.861H148.86H148.86H148.859C138.369 643.75 129.86 635.242 129.86 624.753C129.86 622.867 130.115 621.066 130.594 619.504L130.597 619.494L173.765 468.39ZM645.856 47.5058L645.502 47.1523L645.149 47.5057L564.886 127.737L564.531 128.092L564.888 128.446L645.151 207.869L645.502 208.217L645.854 207.869L726.091 128.446L726.448 128.092L726.093 127.737L645.856 47.5058ZM537.959 155.391L537.606 155.041L537.254 155.393L209.139 483.486L209.047 483.578L209.012 483.702L176.974 595.76L176.725 596.634L177.596 596.377L285.335 564.655L285.455 564.619L285.545 564.531L618.066 235.369L618.425 235.013L618.066 234.658L537.959 155.391ZM718 339.009V339C718 336.415 718.944 333.43 720.564 330.385C722.181 327.347 724.453 324.283 727.065 321.549C729.676 318.813 732.615 316.419 735.557 314.712C738.506 313.001 741.423 312 744 312C749.264 312 756.417 314.625 762.265 318.614C765.183 320.604 767.751 322.917 769.585 325.383C771.421 327.85 772.5 330.44 772.5 332.996V750.052C772.5 760.567 763.965 769.102 753.449 769.102H23.5508C13.0349 769.102 4.5 760.567 4.5 750.052V20.2033C4.5 9.68814 13.0349 1.15378 23.5508 1.15378H440.636C443.195 1.15378 445.841 2.22573 448.392 4.05017C450.94 5.87257 453.362 8.42402 455.46 11.3232C459.667 17.1372 462.5 24.2472 462.5 29.5C462.5 43.2635 459.62 53.8203 455.434 60.9179C451.242 68.0265 445.788 71.6017 440.636 71.6017H76.2623H75.7623V72.1017V708.245V708.745H76.2623H710.813H711.304L711.313 708.254L718 339.009Z" stroke="black"/>
</g>
<defs>
<filter id="filter0_d_0_3" x="0" y="0.601654" width="777" height="777" filterUnits="userSpaceOnUse" color-interpolation-filters="sRGB">
<feFlood flood-opacity="0" result="BackgroundImageFix"/>
<feColorMatrix in="SourceAlpha" type="matrix" values="0 0 0 0 0 0 0 0 0 0 0 0 0 0 0 0 0 0 127 0" result="hardAlpha"/>
<feOffset dy="4"/>
<feGaussianBlur stdDeviation="2"/>
<feComposite in2="hardAlpha" operator="out"/>
<feColorMatrix type="matrix" values="0 0 0 0 0 0 0 0 0 0 0 0 0 0 0 0 0 0 0.25 0"/>
<feBlend mode="normal" in2="BackgroundImageFix" result="effect1_dropShadow_0_3"/>
<feBlend mode="normal" in="SourceGraphic" in2="effect1_dropShadow_0_3" result="shape"/>
</filter>
</defs>
</svg>
